<?xml version="1.0" encoding="utf-8" ?>
<svg baseProfile="full" height="190.0" version="1.1" width="190.0" xmlns="http://www.w3.org/2000/svg" xmlns:ev="http://www.w3.org/2001/xml-events" xmlns:xlink="http://www.w3.org/1999/xlink"><defs /><polyline fill="none" points="60.0,143.0 60.0,167.0" stroke="rgb(248,132,247)" stroke-width="4.0" /><polyline fill="none" points="60.0,173.0 60.0,180.0 20.0,180.0 20.0,173.0" stroke="rgb(253,123,229)" stroke-width="4.0" /><polyline fill="none" points="20.0,167.0 20.0,143.0" stroke="rgb(250,107,200)" stroke-width="4.0" /><polyline fill="none" points="20.0,137.0 20.0,40.0 40.0,40.0 40.0,77.0" stroke="rgb(245,90,173)" stroke-width="4.0" /><polyline fill="none" points="40.0,83.0 40.0,87.0" stroke="rgb(236,71,143)" stroke-width="4.0" /><polyline fill="none" points="40.0,93.0 40.0,100.0 57.0,100.0" stroke="rgb(227,56,117)" stroke-width="4.0" /><polyline fill="none" points="63.0,100.0 80.0,100.0 80.0,90.0 30.0,90.0 30.0,110.0 60.0,110.0 60.0,93.0" stroke="rgb(212,41,86)" stroke-width="4.0" /><polyline fill="none" points="60.0,87.0 60.0,30.0 70.0,30.0 70.0,77.0" stroke="rgb(199,29,60)" stroke-width="4.0" /><polyline fill="none" points="70.0,83.0 70.0,87.0" stroke="rgb(185,22,33)" stroke-width="4.0" /><polyline fill="none" points="70.0,93.0 70.0,97.0" stroke="rgb(180,33,15)" stroke-width="4.0" /><polyline fill="none" points="70.0,103.0 70.0,117.0" stroke="rgb(184,53,5)" stroke-width="4.0" /><polyline fill="none" points="70.0,123.0 70.0,130.0 90.0,130.0 90.0,123.0" stroke="rgb(191,72,4)" stroke-width="4.0" /><polyline fill="none" points="90.0,117.0 90.0,83.0" stroke="rgb(199,91,4)" stroke-width="4.0" /><polyline fill="none" points="90.0,77.0 90.0,73.0" stroke="rgb(204,108,4)" stroke-width="4.0" /><polyline fill="none" points="90.0,67.0 90.0,60.0 100.0,60.0 100.0,90.0 127.0,90.0" stroke="rgb(209,127,4)" stroke-width="4.0" /><polyline fill="none" points="133.0,90.0 140.0,90.0 140.0,40.0 73.0,40.0" stroke="rgb(213,143,4)" stroke-width="4.0" /><polyline fill="none" points="67.0,40.0 63.0,40.0" stroke="rgb(214,160,12)" stroke-width="4.0" /><polyline fill="none" points="57.0,40.0 50.0,40.0 50.0,20.0 150.0,20.0 150.0,137.0" stroke="rgb(207,170,39)" stroke-width="4.0" /><polyline fill="none" points="150.0,143.0 150.0,160.0 157.0,160.0" stroke="rgb(191,168,66)" stroke-width="4.0" /><polyline fill="none" points="163.0,160.0 167.0,160.0" stroke="rgb(164,160,95)" stroke-width="4.0" /><polyline fill="none" points="173.0,160.0 180.0,160.0 180.0,170.0 10.0,170.0 10.0,140.0 170.0,140.0 170.0,167.0" stroke="rgb(137,151,117)" stroke-width="4.0" /><polyline fill="none" points="170.0,173.0 170.0,180.0 160.0,180.0 160.0,173.0" stroke="rgb(99,141,141)" stroke-width="4.0" /><polyline fill="none" points="160.0,167.0 160.0,150.0 153.0,150.0" stroke="rgb(61,130,162)" stroke-width="4.0" /><polyline fill="none" points="147.0,150.0 120.0,150.0 120.0,143.0" stroke="rgb(34,113,187)" stroke-width="4.0" /><polyline fill="none" points="120.0,137.0 120.0,123.0" stroke="rgb(39,93,209)" stroke-width="4.0" /><polyline fill="none" points="120.0,117.0 120.0,93.0" stroke="rgb(53,70,231)" stroke-width="4.0" /><polyline fill="none" points="120.0,87.0 120.0,53.0" stroke="rgb(70,60,244)" stroke-width="4.0" /><polyline fill="none" points="120.0,47.0 120.0,43.0" stroke="rgb(93,68,248)" stroke-width="4.0" /><polyline fill="none" points="120.0,37.0 120.0,23.0" stroke="rgb(112,82,249)" stroke-width="4.0" /><polyline fill="none" points="120.0,17.0 120.0,10.0 10.0,10.0 10.0,80.0 17.0,80.0" stroke="rgb(132,97,249)" stroke-width="4.0" /><polyline fill="none" points="23.0,80.0 57.0,80.0" stroke="rgb(153,108,250)" stroke-width="4.0" /><polyline fill="none" points="63.0,80.0 97.0,80.0" stroke="rgb(180,118,252)" stroke-width="4.0" /><polyline fill="none" points="103.0,80.0 110.0,80.0 110.0,70.0 103.0,70.0" stroke="rgb(205,125,254)" stroke-width="4.0" /><polyline fill="none" points="97.0,70.0 80.0,70.0 80.0,50.0 130.0,50.0 130.0,120.0 60.0,120.0 60.0,137.0" stroke="rgb(231,132,255)" stroke-width="4.0" /></svg>