<?xml version="1.0" encoding="utf-8" ?>
<svg baseProfile="full" height="410.0" version="1.1" width="570.0" xmlns="http://www.w3.org/2000/svg" xmlns:ev="http://www.w3.org/2001/xml-events" xmlns:xlink="http://www.w3.org/1999/xlink"><defs /><polyline fill="none" points="300.0,157.0 300.0,150.0 290.0,150.0 290.0,160.0 330.0,160.0 330.0,40.0 350.0,40.0 350.0,50.0 333.0,50.0" stroke="rgb(248,132,247)" stroke-width="4.0" /><polyline fill="none" points="327.0,50.0 183.0,50.0" stroke="rgb(252,128,238)" stroke-width="4.0" /><polyline fill="none" points="177.0,50.0 170.0,50.0 170.0,60.0 180.0,60.0 180.0,40.0 190.0,40.0 190.0,47.0" stroke="rgb(253,122,225)" stroke-width="4.0" /><polyline fill="none" points="190.0,53.0 190.0,70.0 160.0,70.0 160.0,30.0 200.0,30.0 200.0,47.0" stroke="rgb(251,113,211)" stroke-width="4.0" /><polyline fill="none" points="200.0,53.0 200.0,347.0" stroke="rgb(248,102,192)" stroke-width="4.0" /><polyline fill="none" points="200.0,353.0 200.0,360.0 250.0,360.0 250.0,353.0" stroke="rgb(245,93,177)" stroke-width="4.0" /><polyline fill="none" points="250.0,347.0 250.0,340.0 260.0,340.0 260.0,350.0 10.0,350.0 10.0,10.0 550.0,10.0 550.0,387.0" stroke="rgb(242,83,162)" stroke-width="4.0" /><polyline fill="none" points="550.0,393.0 550.0,400.0 540.0,400.0 540.0,390.0 560.0,390.0 560.0,160.0 553.0,160.0" stroke="rgb(238,74,147)" stroke-width="4.0" /><polyline fill="none" points="547.0,160.0 340.0,160.0 340.0,170.0 350.0,170.0 350.0,163.0" stroke="rgb(231,63,128)" stroke-width="4.0" /><polyline fill="none" points="350.0,157.0 350.0,120.0 360.0,120.0 360.0,130.0 353.0,130.0" stroke="rgb(225,54,113)" stroke-width="4.0" /><polyline fill="none" points="347.0,130.0 333.0,130.0" stroke="rgb(218,47,97)" stroke-width="4.0" /><polyline fill="none" points="327.0,130.0 270.0,130.0 270.0,200.0 317.0,200.0" stroke="rgb(211,39,82)" stroke-width="4.0" /><polyline fill="none" points="323.0,200.0 377.0,200.0" stroke="rgb(201,31,63)" stroke-width="4.0" /><polyline fill="none" points="383.0,200.0 387.0,200.0" stroke="rgb(193,25,49)" stroke-width="4.0" /><polyline fill="none" points="393.0,200.0 410.0,200.0 410.0,190.0 400.0,190.0 400.0,197.0" stroke="rgb(187,22,36)" stroke-width="4.0" /><polyline fill="none" points="400.0,203.0 400.0,247.0" stroke="rgb(181,26,21)" stroke-width="4.0" /><polyline fill="none" points="400.0,253.0 400.0,327.0" stroke="rgb(180,35,13)" stroke-width="4.0" /><polyline fill="none" points="400.0,333.0 400.0,340.0 540.0,340.0 540.0,180.0 390.0,180.0 390.0,250.0 417.0,250.0" stroke="rgb(182,45,7)" stroke-width="4.0" /><polyline fill="none" points="423.0,250.0 427.0,250.0" stroke="rgb(185,56,4)" stroke-width="4.0" /><polyline fill="none" points="433.0,250.0 457.0,250.0" stroke="rgb(190,69,4)" stroke-width="4.0" /><polyline fill="none" points="463.0,250.0 467.0,250.0" stroke="rgb(194,79,4)" stroke-width="4.0" /><polyline fill="none" points="473.0,250.0 500.0,250.0 500.0,290.0 450.0,290.0 450.0,270.0 457.0,270.0" stroke="rgb(198,89,4)" stroke-width="4.0" /><polyline fill="none" points="463.0,270.0 470.0,270.0 470.0,280.0 460.0,280.0 460.0,240.0 480.0,240.0 480.0,230.0 470.0,230.0 470.0,237.0" stroke="rgb(201,98,4)" stroke-width="4.0" /><polyline fill="none" points="470.0,243.0 470.0,260.0 490.0,260.0 490.0,253.0" stroke="rgb(205,110,4)" stroke-width="4.0" /><polyline fill="none" points="490.0,247.0 490.0,220.0 440.0,220.0 440.0,247.0" stroke="rgb(208,120,4)" stroke-width="4.0" /><polyline fill="none" points="440.0,253.0 440.0,307.0" stroke="rgb(210,129,4)" stroke-width="4.0" /><polyline fill="none" points="440.0,313.0 440.0,320.0 510.0,320.0 510.0,313.0" stroke="rgb(212,138,4)" stroke-width="4.0" /><polyline fill="none" points="510.0,307.0 510.0,303.0" stroke="rgb(214,150,5)" stroke-width="4.0" /><polyline fill="none" points="510.0,297.0 510.0,210.0 430.0,210.0 430.0,310.0 520.0,310.0 520.0,300.0 443.0,300.0" stroke="rgb(214,158,10)" stroke-width="4.0" /><polyline fill="none" points="437.0,300.0 433.0,300.0" stroke="rgb(213,165,21)" stroke-width="4.0" /><polyline fill="none" points="427.0,300.0 420.0,300.0 420.0,200.0 530.0,200.0 530.0,330.0 383.0,330.0" stroke="rgb(207,170,39)" stroke-width="4.0" /><polyline fill="none" points="377.0,330.0 233.0,330.0" stroke="rgb(199,170,54)" stroke-width="4.0" /><polyline fill="none" points="227.0,330.0 220.0,330.0 220.0,320.0 230.0,320.0 230.0,340.0 210.0,340.0 210.0,310.0 237.0,310.0" stroke="rgb(188,167,70)" stroke-width="4.0" /><polyline fill="none" points="243.0,310.0 320.0,310.0 320.0,300.0 203.0,300.0" stroke="rgb(175,163,85)" stroke-width="4.0" /><polyline fill="none" points="197.0,300.0 113.0,300.0" stroke="rgb(157,157,102)" stroke-width="4.0" /><polyline fill="none" points="107.0,300.0 53.0,300.0" stroke="rgb(141,152,114)" stroke-width="4.0" /><polyline fill="none" points="47.0,300.0 40.0,300.0 40.0,290.0 100.0,290.0 100.0,250.0 83.0,250.0" stroke="rgb(124,147,127)" stroke-width="4.0" /><polyline fill="none" points="77.0,250.0 60.0,250.0 60.0,280.0 90.0,280.0 90.0,260.0 83.0,260.0" stroke="rgb(104,142,138)" stroke-width="4.0" /><polyline fill="none" points="77.0,260.0 70.0,260.0 70.0,270.0 80.0,270.0 80.0,123.0" stroke="rgb(77,135,153)" stroke-width="4.0" /><polyline fill="none" points="80.0,117.0 80.0,110.0 70.0,110.0 70.0,120.0 120.0,120.0 120.0,90.0 30.0,90.0 30.0,310.0 50.0,310.0 50.0,293.0" stroke="rgb(56,128,165)" stroke-width="4.0" /><polyline fill="none" points="50.0,287.0 50.0,100.0 110.0,100.0 110.0,117.0" stroke="rgb(40,120,177)" stroke-width="4.0" /><polyline fill="none" points="110.0,123.0 110.0,320.0 20.0,320.0 20.0,80.0 140.0,80.0 140.0,117.0" stroke="rgb(33,110,190)" stroke-width="4.0" /><polyline fill="none" points="140.0,123.0 140.0,130.0 130.0,130.0 130.0,120.0 197.0,120.0" stroke="rgb(38,96,206)" stroke-width="4.0" /><polyline fill="none" points="203.0,120.0 210.0,120.0 210.0,80.0 203.0,80.0" stroke="rgb(44,84,218)" stroke-width="4.0" /><polyline fill="none" points="197.0,80.0 150.0,80.0 150.0,20.0 250.0,20.0 250.0,47.0" stroke="rgb(51,72,229)" stroke-width="4.0" /><polyline fill="none" points="250.0,53.0 250.0,130.0 260.0,130.0 260.0,53.0" stroke="rgb(62,62,240)" stroke-width="4.0" /><polyline fill="none" points="260.0,47.0 260.0,30.0 390.0,30.0 390.0,140.0 383.0,140.0" stroke="rgb(73,60,245)" stroke-width="4.0" /><polyline fill="none" points="377.0,140.0 370.0,140.0 370.0,130.0 380.0,130.0 380.0,157.0" stroke="rgb(85,64,247)" stroke-width="4.0" /><polyline fill="none" points="380.0,163.0 380.0,370.0 243.0,370.0" stroke="rgb(96,70,249)" stroke-width="4.0" /><polyline fill="none" points="237.0,370.0 230.0,370.0 230.0,380.0 240.0,380.0 240.0,363.0" stroke="rgb(109,80,249)" stroke-width="4.0" /><polyline fill="none" points="240.0,357.0 240.0,353.0" stroke="rgb(119,88,249)" stroke-width="4.0" /><polyline fill="none" points="240.0,347.0 240.0,333.0" stroke="rgb(129,96,249)" stroke-width="4.0" /><polyline fill="none" points="240.0,327.0 240.0,303.0" stroke="rgb(140,102,250)" stroke-width="4.0" /><polyline fill="none" points="240.0,297.0 240.0,130.0 210.0,130.0 210.0,270.0 237.0,270.0" stroke="rgb(156,110,250)" stroke-width="4.0" /><polyline fill="none" points="243.0,270.0 350.0,270.0 350.0,280.0 340.0,280.0 340.0,273.0" stroke="rgb(170,115,251)" stroke-width="4.0" /><polyline fill="none" points="340.0,267.0 340.0,263.0" stroke="rgb(184,119,253)" stroke-width="4.0" /><polyline fill="none" points="340.0,257.0 340.0,250.0 350.0,250.0 350.0,260.0 330.0,260.0 330.0,240.0 360.0,240.0 360.0,290.0 320.0,290.0 320.0,273.0" stroke="rgb(198,123,254)" stroke-width="4.0" /><polyline fill="none" points="320.0,267.0 320.0,163.0" stroke="rgb(216,128,255)" stroke-width="4.0" /><polyline fill="none" points="320.0,157.0 320.0,140.0 280.0,140.0 280.0,190.0 310.0,190.0 310.0,170.0 303.0,170.0" stroke="rgb(228,131,255)" stroke-width="4.0" /><polyline fill="none" points="297.0,170.0 290.0,170.0 290.0,180.0 300.0,180.0 300.0,163.0" stroke="rgb(239,133,253)" stroke-width="4.0" /></svg>