<?xml version="1.0" encoding="utf-8" ?>
<svg baseProfile="full" height="180.0" version="1.1" width="210.0" xmlns="http://www.w3.org/2000/svg" xmlns:ev="http://www.w3.org/2001/xml-events" xmlns:xlink="http://www.w3.org/1999/xlink"><defs /><polyline fill="none" points="50.0,33.0 50.0,50.0 33.0,50.0" stroke="rgb(248,132,247)" stroke-width="4.0" /><polyline fill="none" points="27.0,50.0 20.0,50.0 20.0,30.0 67.0,30.0" stroke="rgb(253,122,225)" stroke-width="4.0" /><polyline fill="none" points="73.0,30.0 100.0,30.0 100.0,137.0" stroke="rgb(249,104,196)" stroke-width="4.0" /><polyline fill="none" points="100.0,143.0 100.0,170.0 200.0,170.0 200.0,80.0 180.0,80.0 180.0,87.0" stroke="rgb(243,85,166)" stroke-width="4.0" /><polyline fill="none" points="180.0,93.0 180.0,137.0" stroke="rgb(234,67,136)" stroke-width="4.0" /><polyline fill="none" points="180.0,143.0 180.0,150.0 150.0,150.0 150.0,100.0 170.0,100.0 170.0,147.0" stroke="rgb(222,50,105)" stroke-width="4.0" /><polyline fill="none" points="170.0,153.0 170.0,160.0 120.0,160.0 120.0,110.0 147.0,110.0" stroke="rgb(207,36,75)" stroke-width="4.0" /><polyline fill="none" points="153.0,110.0 160.0,110.0 160.0,130.0 153.0,130.0" stroke="rgb(192,24,46)" stroke-width="4.0" /><polyline fill="none" points="147.0,130.0 123.0,130.0" stroke="rgb(181,26,21)" stroke-width="4.0" /><polyline fill="none" points="117.0,130.0 110.0,130.0 110.0,103.0" stroke="rgb(182,45,7)" stroke-width="4.0" /><polyline fill="none" points="110.0,97.0 110.0,90.0 103.0,90.0" stroke="rgb(189,67,4)" stroke-width="4.0" /><polyline fill="none" points="97.0,90.0 83.0,90.0" stroke="rgb(197,86,4)" stroke-width="4.0" /><polyline fill="none" points="77.0,90.0 40.0,90.0 40.0,83.0" stroke="rgb(204,105,4)" stroke-width="4.0" /><polyline fill="none" points="40.0,77.0 40.0,70.0 20.0,70.0 20.0,60.0 27.0,60.0" stroke="rgb(209,124,4)" stroke-width="4.0" /><polyline fill="none" points="33.0,60.0 40.0,60.0 40.0,53.0" stroke="rgb(213,143,4)" stroke-width="4.0" /><polyline fill="none" points="40.0,47.0 40.0,40.0 47.0,40.0" stroke="rgb(214,160,12)" stroke-width="4.0" /><polyline fill="none" points="53.0,40.0 60.0,40.0 60.0,33.0" stroke="rgb(207,170,39)" stroke-width="4.0" /><polyline fill="none" points="60.0,27.0 60.0,10.0 10.0,10.0 10.0,80.0 80.0,80.0 80.0,140.0 117.0,140.0" stroke="rgb(188,167,70)" stroke-width="4.0" /><polyline fill="none" points="123.0,140.0 147.0,140.0" stroke="rgb(161,159,98)" stroke-width="4.0" /><polyline fill="none" points="153.0,140.0 167.0,140.0" stroke="rgb(128,149,124)" stroke-width="4.0" /><polyline fill="none" points="173.0,140.0 190.0,140.0 190.0,90.0 130.0,90.0 130.0,97.0" stroke="rgb(88,138,147)" stroke-width="4.0" /><polyline fill="none" points="130.0,103.0 130.0,107.0" stroke="rgb(47,124,171)" stroke-width="4.0" /><polyline fill="none" points="130.0,113.0 130.0,120.0 140.0,120.0 140.0,113.0" stroke="rgb(34,105,196)" stroke-width="4.0" /><polyline fill="none" points="140.0,107.0 140.0,100.0 103.0,100.0" stroke="rgb(46,81,221)" stroke-width="4.0" /><polyline fill="none" points="97.0,100.0 90.0,100.0 90.0,93.0" stroke="rgb(62,62,240)" stroke-width="4.0" /><polyline fill="none" points="90.0,87.0 90.0,33.0" stroke="rgb(85,64,247)" stroke-width="4.0" /><polyline fill="none" points="90.0,27.0 90.0,20.0 70.0,20.0 70.0,77.0" stroke="rgb(107,78,249)" stroke-width="4.0" /><polyline fill="none" points="70.0,83.0 70.0,87.0" stroke="rgb(126,94,249)" stroke-width="4.0" /><polyline fill="none" points="70.0,93.0 70.0,100.0 30.0,100.0 30.0,83.0" stroke="rgb(149,107,250)" stroke-width="4.0" /><polyline fill="none" points="30.0,77.0 30.0,73.0" stroke="rgb(177,117,252)" stroke-width="4.0" /><polyline fill="none" points="30.0,67.0 30.0,33.0" stroke="rgb(205,125,254)" stroke-width="4.0" /><polyline fill="none" points="30.0,27.0 30.0,20.0 50.0,20.0 50.0,27.0" stroke="rgb(231,132,255)" stroke-width="4.0" /></svg>