<?xml version="1.0" encoding="utf-8" ?>
<svg baseProfile="full" height="200.0" version="1.1" width="210.0" xmlns="http://www.w3.org/2000/svg" xmlns:ev="http://www.w3.org/2001/xml-events" xmlns:xlink="http://www.w3.org/1999/xlink"><defs /><polyline fill="none" points="183.0,70.0 190.0,70.0 190.0,117.0" stroke="rgb(248,132,247)" stroke-width="4.0" /><polyline fill="none" points="190.0,123.0 190.0,180.0 123.0,180.0" stroke="rgb(253,122,225)" stroke-width="4.0" /><polyline fill="none" points="117.0,180.0 100.0,180.0 100.0,133.0" stroke="rgb(249,104,196)" stroke-width="4.0" /><polyline fill="none" points="100.0,127.0 100.0,20.0 50.0,20.0 50.0,27.0" stroke="rgb(243,85,166)" stroke-width="4.0" /><polyline fill="none" points="50.0,33.0 50.0,127.0" stroke="rgb(234,67,136)" stroke-width="4.0" /><polyline fill="none" points="50.0,133.0 50.0,157.0" stroke="rgb(222,50,105)" stroke-width="4.0" /><polyline fill="none" points="50.0,163.0 50.0,170.0 30.0,170.0 30.0,120.0 47.0,120.0" stroke="rgb(207,36,75)" stroke-width="4.0" /><polyline fill="none" points="53.0,120.0 90.0,120.0 90.0,160.0 83.0,160.0" stroke="rgb(192,24,46)" stroke-width="4.0" /><polyline fill="none" points="77.0,160.0 63.0,160.0" stroke="rgb(181,26,21)" stroke-width="4.0" /><polyline fill="none" points="57.0,160.0 40.0,160.0 40.0,140.0 47.0,140.0" stroke="rgb(182,45,7)" stroke-width="4.0" /><polyline fill="none" points="53.0,140.0 80.0,140.0 80.0,167.0" stroke="rgb(189,67,4)" stroke-width="4.0" /><polyline fill="none" points="80.0,173.0 80.0,190.0 120.0,190.0 120.0,173.0" stroke="rgb(197,86,4)" stroke-width="4.0" /><polyline fill="none" points="120.0,167.0 120.0,123.0" stroke="rgb(204,105,4)" stroke-width="4.0" /><polyline fill="none" points="120.0,117.0 120.0,100.0 137.0,100.0" stroke="rgb(209,124,4)" stroke-width="4.0" /><polyline fill="none" points="143.0,100.0 170.0,100.0 170.0,93.0" stroke="rgb(213,143,4)" stroke-width="4.0" /><polyline fill="none" points="170.0,87.0 170.0,80.0 187.0,80.0" stroke="rgb(214,160,12)" stroke-width="4.0" /><polyline fill="none" points="193.0,80.0 200.0,80.0 200.0,50.0 130.0,50.0 130.0,97.0" stroke="rgb(207,170,39)" stroke-width="4.0" /><polyline fill="none" points="130.0,103.0 130.0,130.0 123.0,130.0" stroke="rgb(188,167,70)" stroke-width="4.0" /><polyline fill="none" points="117.0,130.0 93.0,130.0" stroke="rgb(161,159,98)" stroke-width="4.0" /><polyline fill="none" points="87.0,130.0 33.0,130.0" stroke="rgb(128,149,124)" stroke-width="4.0" /><polyline fill="none" points="27.0,130.0 20.0,130.0 20.0,30.0 97.0,30.0" stroke="rgb(88,138,147)" stroke-width="4.0" /><polyline fill="none" points="103.0,30.0 110.0,30.0 110.0,10.0 10.0,10.0 10.0,180.0 70.0,180.0 70.0,163.0" stroke="rgb(47,124,171)" stroke-width="4.0" /><polyline fill="none" points="70.0,157.0 70.0,150.0 60.0,150.0 60.0,170.0 67.0,170.0" stroke="rgb(34,105,196)" stroke-width="4.0" /><polyline fill="none" points="73.0,170.0 97.0,170.0" stroke="rgb(46,81,221)" stroke-width="4.0" /><polyline fill="none" points="103.0,170.0 187.0,170.0" stroke="rgb(62,62,240)" stroke-width="4.0" /><polyline fill="none" points="193.0,170.0 200.0,170.0 200.0,120.0 133.0,120.0" stroke="rgb(85,64,247)" stroke-width="4.0" /><polyline fill="none" points="127.0,120.0 110.0,120.0 110.0,40.0 140.0,40.0 140.0,47.0" stroke="rgb(107,78,249)" stroke-width="4.0" /><polyline fill="none" points="140.0,53.0 140.0,110.0 160.0,110.0 160.0,103.0" stroke="rgb(126,94,249)" stroke-width="4.0" /><polyline fill="none" points="160.0,97.0 160.0,73.0" stroke="rgb(149,107,250)" stroke-width="4.0" /><polyline fill="none" points="160.0,67.0 160.0,60.0 180.0,60.0 180.0,77.0" stroke="rgb(177,117,252)" stroke-width="4.0" /><polyline fill="none" points="180.0,83.0 180.0,90.0 163.0,90.0" stroke="rgb(205,125,254)" stroke-width="4.0" /><polyline fill="none" points="157.0,90.0 150.0,90.0 150.0,70.0 177.0,70.0" stroke="rgb(231,132,255)" stroke-width="4.0" /></svg>